<?xml version="1.0" encoding="utf-8"?>
<!-- Generator: Adobe Illustrator 16.0.4, SVG Export Plug-In . SVG Version: 6.00 Build 0)  -->
<!DOCTYPE svg PUBLIC "-//W3C//DTD SVG 1.1//EN" "http://www.w3.org/Graphics/SVG/1.1/DTD/svg11.dtd">
<svg version="1.1" id="Layer_1" xmlns="http://www.w3.org/2000/svg" xmlns:xlink="http://www.w3.org/1999/xlink" x="0px" y="0px"
	 width="200px" height="62px" viewBox="0 0 200 62" enable-background="new 0 0 200 62" xml:space="preserve">
<g>
	<path fill="#C4D600" d="M197.526,27.349h-0.986l-0.796,2.323l-0.891-2.323h-0.979l-0.271,3.484h0.621l0.183-2.943l0.891,2.848
		h0.812l0.883-2.848l0.184,2.943h0.716L197.526,27.349z M190.384,27.89h1.169v2.943h0.62V27.89h1.169v-0.541h-2.958V27.89z
		 M153.15,24.494h-6.881c-0.382,3.245-1.399,11.581-1.781,14.826c-0.406,3.556-0.318,7.637,7.763,6.96
		c0.215-1.869,0.43-3.746,0.629-5.623c-0.708,0-0.994-0.136-1.425-0.351c-0.365-0.135,0.176-3.499,0.446-5.814
		C152.45,30.141,152.729,28.033,153.15,24.494 M72.782,24.494h-6.88c-0.474,4.081-1.483,12.09-1.965,16.163
		c-0.497,4.168,2.792,6.212,7.95,5.623c0.234-1.869,0.473-3.746,0.716-5.623c-0.529,0.104-0.97,0.095-1.252-0.175l-0.271-0.446
		c-0.326-0.804,0.21-2.688,0.449-5.003C71.942,31.398,72.36,28.128,72.782,24.494 M50.987,37.625l-0.179,0.088l-2.056-13.132
		l-7.322-0.087l5.361,21.969h5.898l10.798-21.881l-7.23-0.087L50.987,37.625z M174.762,33.331c0.334-2.601,0.938-3.619,2.855-4.191
		c1.551-0.375,3.221,0.127,3.396,0.986C181.507,33.211,179.685,33.498,174.762,33.331 M178.149,23.865
		c-0.906,0.048-2.083,0.278-2.942,0.541c-2.307,0.692-4.184,2.259-5.361,4.104c-0.858,1.36-1.781,3.389-2.227,7.501
		c-1.217,11.191,7.571,12.257,17.594,9.203c0.334-2.8,0.43-4.304,0.533-5.266c-2.426,0.891-13.116,3.437-11.518-2.419
		c1.487-0.031,2.521,0.032,4.017,0c3.038-0.023,6.014-0.89,7.589-2.497c1.129-1.153,1.781-2.362,2.052-4.375
		C188.665,24.748,183.511,23.77,178.149,23.865 M133.305,40.227c-1.733,0.994-4.327,1.138-5.521,0.255
		c-2.132-1.591-0.764-8.011,0.446-9.649c0.588-0.788,1.653-1.353,2.418-1.336c1.829-0.222,2.672,0.183,3.841,0.891
		C134.322,32.281,133.687,36.758,133.305,40.227 M136.542,26.188c-1.821-1.933-4.288-2.371-7.23-2.323
		c-1.177,0.056-2.338,0.254-3.309,0.716c-2.864,1.233-4.693,4.311-5.449,7.596c-1.869,8.152-0.914,15.908,8.758,14.373
		c1.177-0.19,2.354-0.771,3.293-1.249c-0.144,1.026-0.223,2.506-0.351,3.214c-0.906,5.019-8.534,3.706-12.503,2.053
		c-0.238,1.94-0.478,3.873-0.716,5.806c1.599,0.43,3.683,0.915,5.535,1.074c2.005,0.175,4.868-0.024,6.348-0.271
		c3.723-0.629,7.509-3.93,8.034-7.859c1.225-9.234,3.118-24.824,3.118-24.824l-4.192,0.087
		C137.878,24.581,136.629,26.132,136.542,26.188 M85.457,40.831c-1.794-0.755-0.505-3.849,0.179-10.618h5.357l0.72-5.719h-5.449
		l0.803-6.157l-7.143,1.87l-0.537,4.47l-3.575,0.891l-0.62,4.645h3.479c-0.246,6.236-3.77,14.183,2.947,16.067
		c1.01,0.286,2.104,0.445,3.746,0.358c1.134-0.063,2.363-0.176,3.309-0.445c0.211-2.013,0.326-3.508,0.537-5.274
		C87.775,41.11,86.63,41.333,85.457,40.831 M150.024,14.042c-1.281,0.159-2.92,1.089-3.484,2.863
		c-0.938,2.927,1.671,5.87,4.915,5.178C156.117,21.089,155.576,13.883,150.024,14.042 M69.743,14.042
		c-1.531,0.143-2.868,1.122-3.484,2.768c-1.062,2.832,1.539,5.989,4.733,5.361C75.749,21.232,75.299,13.891,69.743,14.042
		 M166.37,13.597h-6.88c-0.859,6.967-2.355,19.472-3.214,26.439c-0.391,3.062,0.445,7.111,7.858,6.244
		c0.238-1.869,0.478-3.746,0.716-5.623c-0.422-0.063-0.748-0.024-1.161-0.088c-0.357-0.111-0.357-0.342-0.445-0.804
		c-0.096-1.359,0.62-5.687,0.891-7.771C164.882,25.687,165.614,19.904,166.37,13.597 M108.051,33.958h-5.62l4.375-12.416
		c0,0,0.795,8.185,1.245,12.146V33.958z M103.767,13.509c0,0-8.634,21.643-12.953,32.5v0.096l7.414-0.096l2.231-6.602h8.221
		l0.716,6.697h7.413l-5.091-32.596H103.767z M41.972,4.76h-4.375l-9.465,20.179l-2.681-10.627h-2.86l-5.178,10.627L12.768,4.672
		H8.397L14.732,30.3h4.017l4.562-9.823l2.231,10.006l-4.554,9.911l-1.615-6.618H13.13L2.141,56.191h4.462l9.465-20.268L18.75,46.55
		h2.859l5.178-10.627l4.641,20.268h4.466l-6.427-25.708L41.972,4.76z"/>
</g>
</svg>
